 <svg  version="1.0" xmlns="http://www.w3.org/2000/svg"  width="1350.000000pt" height="1350.000000pt" viewBox="0 0 1350.000000 1350.000000"  preserveAspectRatio="xMidYMid meet">  <g transform="translate(0.000000,1350.000000) scale(0.100000,-0.100000)" fill="#ffd200" stroke="none"> <path d="M6630 9397 c-36 -19 -86 -47 -112 -63 -97 -59 -253 -152 -264 -155 -5 -2 -30 -17 -55 -32 -139 -88 -184 -116 -284 -175 -60 -36 -141 -83 -180 -105 -38 -22 -72 -43 -75 -46 -6 -9 -278 -171 -285 -171 -3 0 -34 -18 -67 -41 -56 -37 -99 -62 -192 -111 -62 -32 -132 -110 -155 -172 l-22 -59 3 -951 3 -951 24 -48 c21 -44 77 -101 128 -130 11 -7 51 -33 89 -58 38 -25 76 -49 84 -53 8 -4 24 -12 35 -19 11 -7 47 -27 80 -46 33 -18 76 -44 95 -56 90 -57 328 -195 337 -195 5 0 17 -8 27 -18 9 -11 34 -25 56 -32 22 -7 40 -17 40 -22 0 -5 21 -18 48 -30 26 -11 54 -27 62 -35 14 -13 101 -65 198 -118 20 -11 55 -32 77 -46 76 -49 233 -139 271 -155 22 -9 46 -22 55 -30 9 -8 39 -17 68 -21 47 -5 58 -2 144 41 163 84 196 102 215 119 10 9 23 17 28 17 12 0 89 52 137 92 22 18 49 53 62 78 l22 45 6 655 c2 360 1 686 -4 724 -5 37 -6 78 -3 90 3 13 38 40 97 75 51 30 103 62 117 72 14 11 42 26 62 35 20 8 39 22 42 30 3 8 12 14 20 14 8 0 36 24 63 54 63 69 72 109 73 333 1 160 -1 175 -23 225 -38 84 -96 135 -262 233 -82 48 -175 104 -205 124 -30 20 -64 41 -75 47 -74 41 -147 85 -181 108 -21 14 -42 26 -46 26 -3 0 -42 24 -85 52 -43 29 -91 59 -107 65 -51 23 -126 84 -126 103 0 26 35 43 73 35 18 -4 58 -22 90 -41 32 -19 62 -34 67 -34 5 0 15 -6 22 -14 8 -8 37 -26 64 -40 27 -15 85 -49 129 -76 44 -27 87 -52 95 -56 8 -4 29 -17 45 -29 17 -12 37 -24 45 -27 13 -5 200 -115 311 -183 61 -37 124 -74 150 -87 63 -32 148 -104 162 -138 12 -29 15 -120 16 -532 2 -523 7 -763 15 -777 3 -4 -1 -17 -9 -27 -8 -10 -15 -30 -15 -43 0 -16 -16 -40 -46 -68 -26 -24 -50 -43 -55 -43 -4 0 -43 -22 -86 -49 -43 -26 -96 -57 -118 -69 -22 -11 -70 -49 -106 -84 -62 -59 -67 -66 -73 -118 -9 -79 -6 -311 4 -340 4 -14 11 -36 14 -50 9 -37 72 -73 117 -67 34 4 135 50 209 96 19 11 46 26 60 33 14 7 47 28 74 47 27 20 70 46 95 58 25 13 81 46 124 73 43 28 82 50 86 50 4 0 16 9 26 20 10 11 22 20 28 20 5 0 36 16 68 36 70 44 138 115 140 146 1 13 3 37 4 53 5 50 14 978 15 1467 1 385 -1 461 -14 486 -21 41 -103 130 -127 137 -20 7 -53 27 -172 106 -32 22 -62 39 -67 39 -5 0 -42 22 -82 49 -40 26 -83 51 -96 55 -12 4 -43 23 -67 42 -25 19 -47 34 -50 34 -2 0 -24 14 -48 30 -25 17 -49 30 -55 30 -5 0 -40 20 -76 45 -37 25 -70 45 -73 45 -2 0 -28 15 -56 33 -69 45 -113 72 -162 98 -22 12 -66 39 -97 60 -32 22 -62 39 -66 39 -5 0 -27 13 -48 28 -21 16 -59 39 -84 52 -25 13 -70 40 -100 59 -95 61 -189 102 -243 107 -45 5 -61 1 -117 -29z m140 -56 c0 -11 136 -98 210 -133 14 -7 29 -18 33 -25 4 -7 12 -13 17 -13 5 0 44 -21 87 -46 99 -58 85 -49 240 -144 72 -44 134 -80 137 -80 4 0 25 -13 48 -30 22 -16 47 -30 55 -30 7 0 13 -4 13 -9 0 -5 12 -14 28 -20 15 -6 41 -20 57 -31 17 -11 39 -24 50 -30 24 -12 46 -26 98 -62 22 -16 46 -28 54 -28 7 0 13 -4 13 -9 0 -5 12 -14 28 -20 15 -6 41 -20 57 -31 17 -11 39 -24 50 -30 11 -6 34 -19 50 -30 17 -11 39 -24 50 -30 11 -6 34 -19 50 -30 17 -11 39 -24 50 -30 11 -6 34 -19 50 -30 17 -11 37 -23 45 -27 8 -4 21 -13 28 -20 7 -7 19 -13 25 -13 7 -1 22 -9 35 -19 l22 -19 0 -999 0 -999 -42 -23 c-24 -12 -56 -31 -73 -41 -16 -11 -39 -24 -50 -30 -11 -6 -33 -19 -50 -30 -16 -11 -42 -25 -57 -31 -16 -6 -28 -14 -28 -19 0 -4 -8 -10 -17 -14 -10 -3 -31 -15 -48 -26 -16 -11 -42 -25 -57 -31 -16 -6 -28 -15 -28 -20 0 -5 -5 -9 -11 -9 -14 0 -133 -71 -137 -82 -2 -4 -9 -8 -16 -8 -7 0 -31 -13 -53 -29 -22 -16 -49 -32 -61 -35 -12 -4 -22 -11 -22 -16 0 -4 -11 -11 -25 -14 -14 -4 -25 -11 -25 -16 0 -6 -6 -10 -13 -10 -8 0 -24 -11 -37 -25 -13 -14 -31 -25 -40 -25 -15 0 -16 22 -14 233 l2 232 39 22 c21 12 43 25 48 30 6 4 21 14 35 20 34 17 97 53 148 86 23 15 59 37 80 48 20 11 51 29 67 39 17 11 45 26 63 34 l33 15 -2 781 -3 780 -50 26 c-28 13 -64 33 -81 44 -16 11 -39 24 -50 30 -11 6 -33 19 -50 30 -16 11 -38 23 -47 26 -10 4 -18 10 -18 14 0 5 -10 12 -22 16 -12 3 -39 19 -61 35 -22 16 -46 29 -54 29 -7 0 -13 4 -13 9 0 5 -9 13 -21 16 -11 4 -48 25 -82 48 -62 42 -89 58 -157 94 -19 10 -37 21 -40 24 -11 12 -128 79 -139 79 -6 0 -11 4 -11 9 0 5 -9 13 -21 16 -11 4 -49 27 -85 51 -35 24 -66 44 -69 44 -2 0 -38 20 -78 45 -41 25 -80 45 -86 45 -6 0 -11 5 -11 10 0 6 -8 14 -17 17 -10 4 -23 14 -29 22 -10 13 -17 11 -55 -14 -50 -34 -76 -50 -104 -65 -11 -6 -33 -19 -50 -30 -16 -11 -37 -22 -45 -26 -60 -23 -93 -63 -53 -64 10 -1 36 -12 58 -25 44 -26 68 -40 135 -76 25 -14 63 -37 85 -52 22 -15 45 -27 52 -27 7 0 13 -4 13 -9 0 -5 10 -13 22 -17 12 -3 39 -19 61 -35 22 -16 46 -29 53 -29 7 0 14 -4 16 -8 4 -10 205 -133 268 -164 14 -7 31 -18 38 -25 7 -7 18 -13 23 -13 5 0 28 -13 51 -30 22 -16 47 -30 55 -30 7 0 13 -4 13 -9 0 -5 12 -14 28 -20 15 -6 41 -20 57 -31 17 -11 39 -24 50 -30 11 -6 34 -19 50 -30 17 -11 50 -30 74 -43 l43 -24 2 -251 1 -251 -43 -23 c-49 -26 -74 -41 -117 -68 -16 -11 -42 -25 -57 -31 -16 -6 -28 -15 -28 -20 0 -5 -5 -9 -11 -9 -11 0 -128 -67 -139 -79 -3 -3 -26 -16 -52 -29 -26 -13 -50 -27 -53 -33 -4 -5 -13 -9 -22 -9 -19 0 -53 -28 -53 -44 0 -6 21 -20 48 -30 26 -11 53 -23 60 -29 9 -7 12 -165 12 -731 l0 -721 -48 -23 c-50 -25 -78 -41 -127 -72 -16 -11 -39 -24 -50 -30 -11 -6 -33 -19 -50 -30 -16 -11 -42 -25 -57 -31 -16 -6 -28 -14 -28 -19 0 -4 -8 -10 -17 -14 -17 -5 -39 -19 -95 -59 -21 -14 -31 -16 -54 -7 -16 6 -31 15 -34 19 -3 4 -27 21 -53 37 -112 67 -143 85 -167 97 -14 6 -27 15 -30 19 -3 4 -17 12 -30 17 -29 13 -59 31 -78 49 -7 6 -20 12 -28 12 -8 0 -14 4 -14 9 0 5 -10 13 -22 17 -12 3 -39 19 -61 35 -22 16 -46 29 -54 29 -7 0 -13 4 -13 9 0 5 -12 14 -27 20 -16 6 -41 20 -58 31 -16 11 -38 23 -47 26 -10 4 -18 10 -18 14 0 5 -12 13 -27 19 -16 6 -41 20 -58 31 -16 11 -38 23 -47 26 -10 4 -18 10 -18 14 0 5 -12 13 -27 19 -16 6 -41 20 -58 31 -16 11 -39 24 -50 30 -11 6 -33 19 -50 30 -16 11 -39 24 -50 30 -11 6 -33 19 -50 30 -16 11 -39 24 -50 30 -11 5 -29 16 -40 22 -20 13 -86 54 -117 73 -9 5 -36 21 -60 34 -24 13 -62 36 -86 52 -24 16 -45 29 -47 29 -2 0 -29 15 -60 34 l-56 33 0 998 c1 918 2 1000 17 1017 10 10 23 18 30 18 7 0 30 12 51 26 21 14 47 30 58 35 11 5 34 18 50 29 17 11 39 24 50 30 11 6 34 19 50 30 17 11 39 24 50 30 11 6 34 19 50 30 17 11 39 24 50 30 11 6 34 19 50 30 17 11 39 24 50 30 11 6 34 19 50 30 17 11 39 24 50 30 11 6 34 19 50 30 17 11 39 24 50 30 11 6 34 19 50 30 17 11 39 24 50 30 11 6 34 19 50 30 17 11 39 24 50 30 11 6 34 19 50 30 17 11 39 24 50 30 11 6 34 19 50 30 17 11 39 24 50 30 11 6 34 19 50 30 17 11 39 24 50 30 11 6 34 19 50 30 17 11 39 24 50 30 11 6 34 19 50 30 17 11 39 24 50 30 11 6 34 19 50 30 17 11 39 24 50 30 11 6 34 19 50 30 17 11 40 25 53 31 12 7 22 16 22 21 0 4 11 8 25 8 14 0 25 -4 25 -9z"/> <path d="M6157 8413 c-3 -5 -1 -33 4 -63 5 -30 9 -191 8 -357 0 -166 2 -307 6 -313 3 -5 14 -10 24 -10 10 0 24 -7 31 -15 7 -8 16 -15 21 -15 5 0 28 -12 52 -27 58 -38 80 -51 97 -60 8 -4 47 -26 86 -50 39 -24 74 -43 76 -43 3 0 43 -25 88 -55 45 -30 87 -55 92 -55 6 0 24 10 41 23 33 23 59 39 92 57 11 6 34 19 50 30 17 11 39 24 50 30 11 6 34 19 50 30 17 11 39 24 50 30 11 6 34 19 50 30 17 11 40 24 52 29 12 6 40 22 62 36 22 14 47 25 56 25 17 0 31 43 20 60 -4 7 -22 18 -39 26 -17 8 -44 23 -61 34 -16 10 -47 28 -67 39 -21 11 -57 33 -80 48 -60 38 -81 51 -98 59 -8 4 -33 19 -55 33 -22 14 -56 34 -75 44 -19 11 -53 31 -75 46 -22 15 -47 30 -55 34 -8 4 -28 16 -45 27 -16 11 -39 24 -50 30 -11 6 -33 19 -50 30 -16 11 -39 24 -50 30 -11 6 -33 19 -50 30 -16 11 -39 24 -50 30 -11 6 -33 19 -50 30 -16 11 -37 23 -45 27 -8 3 -31 18 -50 33 -19 15 -43 30 -52 33 -10 4 -18 11 -18 17 0 11 -36 14 -43 3z m258 -259 c37 -22 79 -47 93 -56 15 -10 38 -23 52 -30 14 -7 39 -22 55 -34 17 -12 53 -34 80 -50 28 -15 75 -43 105 -63 30 -19 71 -43 90 -53 63 -32 146 -82 183 -112 42 -33 51 -74 17 -83 -11 -3 -20 -9 -20 -14 0 -5 -12 -14 -26 -19 -23 -9 -90 -49 -164 -100 -14 -9 -50 -27 -82 -40 -55 -22 -57 -22 -99 -6 -23 10 -65 32 -93 49 -28 18 -60 38 -71 44 -174 104 -231 142 -247 168 -16 27 -18 54 -18 239 l0 209 39 -6 c21 -2 69 -22 106 -43z"/> <path d="M5720 8284 c-25 -19 -54 -39 -65 -45 -11 -5 -33 -18 -50 -29 -16 -11 -39 -24 -50 -30 -11 -6 -33 -19 -50 -30 -30 -20 -43 -26 -70 -34 -12 -4 -13 -110 -10 -783 2 -428 4 -781 4 -785 1 -4 11 -10 24 -14 12 -4 40 -18 62 -33 49 -31 111 -67 145 -84 14 -6 31 -17 38 -24 7 -7 17 -13 22 -13 9 0 133 -82 161 -106 8 -8 23 -14 32 -14 16 0 17 28 16 328 0 313 -7 458 -23 494 -10 22 33 37 48 16 11 -15 99 -79 126 -91 8 -4 29 -16 45 -27 17 -11 39 -24 50 -30 11 -6 47 -26 80 -44 l60 -32 2 -423 2 -424 23 -16 c13 -9 38 -24 57 -34 19 -10 52 -31 75 -45 23 -14 57 -35 76 -45 19 -11 54 -32 78 -48 24 -16 47 -29 51 -29 5 0 11 -7 15 -15 10 -28 77 -18 119 18 l39 32 0 489 c-1 448 -2 489 -18 507 -9 10 -25 19 -35 19 -10 0 -21 5 -24 11 -4 5 -17 15 -28 20 -12 5 -35 18 -52 29 -16 11 -39 24 -50 30 -11 6 -33 19 -50 30 -16 11 -39 24 -50 30 -11 6 -33 19 -50 30 -16 11 -39 24 -50 30 -11 6 -33 19 -50 30 -16 11 -39 24 -50 30 -11 6 -33 19 -50 30 -16 11 -39 24 -50 30 -11 6 -33 19 -50 30 -16 11 -39 24 -50 30 -11 6 -33 19 -50 30 -16 11 -39 24 -50 30 -11 5 -27 14 -35 20 -48 31 -169 100 -176 100 -5 0 -19 9 -32 18 l-24 18 2 421 c0 232 -3 424 -7 426 -5 3 -29 -10 -53 -29z m-55 -201 c5 -10 11 -148 15 -308 4 -174 11 -300 17 -315 18 -42 177 -180 206 -180 5 0 22 -11 39 -25 16 -14 36 -25 43 -25 8 0 18 -6 22 -12 8 -13 25 -24 108 -69 22 -12 44 -28 48 -35 4 -8 16 -14 26 -14 20 0 48 -27 38 -36 -9 -9 -127 48 -142 69 -10 15 -17 17 -32 9 -13 -8 -22 -7 -33 3 -20 18 -103 5 -131 -21 -51 -46 -53 -61 -56 -344 -3 -259 -10 -320 -37 -320 -11 0 -73 32 -156 80 -63 36 -91 66 -100 106 -8 35 -13 896 -7 1239 2 120 4 133 25 160 41 52 93 70 107 38z m665 -1064 c25 -11 56 -26 70 -34 14 -8 47 -26 75 -41 51 -27 73 -41 190 -116 89 -57 96 -77 94 -275 -1 -78 1 -146 5 -151 11 -18 -11 -461 -24 -477 -17 -21 -52 -19 -83 5 -14 11 -29 20 -35 20 -5 0 -27 13 -48 28 -21 15 -59 40 -84 54 -25 15 -52 39 -59 55 -7 15 -17 36 -22 45 -5 10 -9 176 -9 369 0 405 4 385 -96 479 -35 32 -64 62 -64 65 0 8 31 -1 90 -26z"/> <path d="M5580 4578 c-54 -12 -105 -56 -131 -114 -17 -37 -18 -70 -18 -375 1 -404 7 -436 85 -489 l41 -29 223 -5 c123 -2 251 0 284 5 106 18 159 66 159 145 0 38 -5 49 -34 75 -55 50 -80 56 -234 63 -118 5 -155 14 -155 37 0 25 7 27 124 33 54 3 104 10 109 15 6 6 19 11 29 11 10 0 36 16 58 36 37 34 40 40 40 91 0 51 -3 58 -37 90 -21 19 -49 40 -63 48 -30 15 -155 37 -190 33 -17 -2 -25 2 -25 12 0 12 21 16 105 21 144 9 179 20 229 74 57 61 57 104 1 167 -31 36 -48 47 -82 52 -74 12 -470 15 -518 4z m565 -144 l0 -59 -40 1 c-204 5 -435 5 -443 0 -5 -3 -10 -59 -10 -127 l-1 -121 222 3 222 4 2 -46 c4 -78 6 -77 -227 -69 -113 4 -207 5 -210 3 -10 -9 -5 -253 5 -255 5 -2 114 -1 240 2 127 3 237 2 245 -1 11 -5 15 -22 14 -58 0 -28 -3 -53 -6 -57 -9 -9 -630 -6 -639 3 -4 4 -3 29 2 55 7 29 9 190 7 413 -2 201 0 366 5 368 4 1 143 2 310 1 l302 -1 0 -59z"/> <path d="M8668 4570 c-102 -32 -176 -95 -219 -187 -28 -61 -31 -160 -8 -223 33 -86 168 -202 250 -215 90 -13 160 -55 137 -82 -13 -16 -71 -8 -103 13 -11 8 -29 14 -40 14 -11 0 -37 11 -59 23 -54 34 -104 23 -161 -33 -50 -49 -62 -84 -45 -134 11 -34 99 -126 121 -126 6 0 23 -8 37 -18 59 -40 234 -53 362 -26 110 22 189 84 241 189 33 68 33 178 0 248 -27 55 -117 136 -186 166 -35 15 -49 39 -35 56 9 11 16 11 29 3 43 -27 171 84 171 148 0 43 -70 131 -126 158 -98 48 -261 59 -366 26z m237 -74 c84 -19 182 -65 189 -89 5 -20 -12 -67 -24 -67 -4 0 -10 -9 -13 -20 -7 -28 -32 -25 -75 10 -97 78 -266 80 -328 4 -62 -76 -8 -145 151 -189 33 -9 74 -21 90 -27 17 -5 41 -12 55 -15 34 -8 122 -67 140 -95 8 -13 22 -45 30 -73 22 -71 3 -140 -56 -201 -70 -72 -119 -89 -254 -89 -120 0 -152 8 -240 57 -19 11 -48 25 -63 31 -32 14 -47 54 -26 71 8 6 20 23 26 39 15 33 52 37 71 7 17 -28 90 -72 137 -83 112 -26 193 -16 250 29 23 18 27 29 28 74 1 48 -2 55 -34 81 -19 16 -41 29 -50 29 -9 0 -30 7 -45 15 -16 8 -37 15 -48 15 -20 0 -101 25 -153 47 -17 7 -35 13 -40 13 -12 0 -76 61 -98 95 -27 42 -26 158 1 200 76 118 218 167 379 131z m7 -232 c20 -6 32 -35 18 -44 -26 -16 -110 22 -110 49 0 13 38 11 92 -5z"/> <path d="M4433 4564 c-44 -15 -57 -27 -87 -78 l-24 -41 -1 -340 c-2 -395 2 -426 60 -485 38 -38 43 -40 101 -40 57 0 63 2 98 38 44 44 64 116 58 217 -3 63 -2 65 24 70 31 7 84 -26 94 -57 3 -11 20 -34 37 -52 18 -19 41 -44 52 -58 54 -65 73 -85 105 -108 50 -37 85 -50 131 -50 53 0 123 62 133 118 4 20 9 191 12 380 5 355 5 353 -35 431 -19 36 -62 56 -123 56 -59 0 -61 -1 -99 -43 -41 -47 -63 -119 -58 -195 3 -46 -14 -97 -32 -97 -13 0 -72 64 -156 170 -33 41 -83 96 -111 121 -43 39 -60 48 -98 51 -26 2 -62 -2 -81 -8z m107 -84 c11 -11 20 -24 20 -29 0 -4 11 -20 24 -34 13 -14 45 -54 71 -89 27 -35 53 -67 59 -73 7 -5 34 -39 60 -75 27 -36 54 -69 61 -75 6 -5 29 -35 50 -65 21 -30 41 -57 44 -60 9 -7 30 -42 40 -66 9 -20 39 -39 48 -31 2 3 -1 56 -7 118 -6 63 -10 200 -8 304 l3 190 60 3 c33 1 65 -1 72 -5 8 -6 9 -38 3 -118 -12 -166 -11 -592 1 -659 12 -70 6 -78 -61 -74 -49 3 -29 -18 -244 260 -27 35 -54 68 -61 73 -6 6 -53 66 -103 135 -116 157 -113 153 -122 143 -4 -4 -5 -138 -1 -298 4 -168 3 -295 -2 -302 -10 -14 -105 -18 -122 -5 -6 4 -10 157 -10 422 0 265 4 418 10 422 22 16 95 8 115 -12z"/> <path d="M6443 4567 c-18 -7 -46 -29 -62 -50 -24 -31 -29 -44 -24 -75 6 -42 51 -128 97 -187 97 -124 111 -166 74 -223 -14 -20 -31 -47 -39 -58 -8 -12 -40 -60 -71 -106 -56 -82 -88 -151 -88 -188 0 -25 47 -79 79 -92 14 -5 45 -11 69 -13 54 -4 117 37 180 116 72 92 89 109 105 109 9 0 46 -35 82 -79 84 -100 135 -136 200 -144 57 -6 85 6 129 52 30 31 30 31 17 84 -17 67 -42 116 -75 146 -14 14 -26 28 -26 31 0 4 -25 45 -55 91 -31 45 -53 89 -50 97 3 7 5 19 5 26 0 7 38 71 85 141 114 172 127 222 76 285 -28 33 -33 35 -103 38 l-73 3 -64 -55 c-35 -30 -71 -67 -81 -83 -29 -49 -43 -55 -79 -37 -17 9 -39 28 -48 42 -32 50 -113 121 -151 132 -46 13 -69 12 -109 -3z m141 -117 c20 -28 36 -53 36 -56 0 -5 55 -82 80 -111 5 -7 10 -16 10 -21 0 -5 7 -15 15 -22 8 -7 15 -21 15 -31 0 -10 4 -21 10 -24 12 -8 50 12 50 26 0 6 14 28 30 49 17 21 30 41 30 45 0 3 20 33 45 65 25 32 45 61 45 65 0 3 10 19 22 35 21 29 25 30 95 30 63 0 73 -2 73 -18 0 -9 -8 -22 -18 -28 -17 -11 -70 -80 -191 -248 -30 -42 -57 -76 -61 -76 -3 0 -11 -9 -18 -21 -12 -19 -5 -32 77 -142 50 -67 94 -127 99 -132 5 -6 26 -35 47 -65 21 -29 51 -66 67 -81 17 -15 27 -32 24 -38 -4 -6 -37 -11 -75 -11 -52 0 -73 4 -89 19 -12 10 -22 22 -22 26 0 4 -13 24 -30 45 -16 21 -30 43 -30 48 0 6 -6 15 -13 19 -11 7 -84 116 -113 168 -12 22 -54 33 -54 15 0 -7 -13 -32 -30 -57 -16 -24 -30 -48 -30 -54 0 -5 -4 -9 -9 -9 -7 0 -65 -81 -106 -148 -45 -74 -42 -72 -121 -72 -86 0 -92 9 -41 63 17 18 39 44 47 56 8 12 27 36 43 54 15 17 27 34 27 37 0 4 38 57 84 119 88 116 91 128 54 164 -10 10 -30 37 -45 60 -43 68 -174 241 -194 256 -11 7 -19 22 -19 32 0 17 8 19 74 19 l74 0 36 -50z"/> <path d="M7444 4556 c-17 -7 -45 -32 -63 -54 l-32 -41 1 -275 c0 -248 2 -280 21 -338 52 -158 173 -262 336 -287 96 -15 123 -14 207 6 126 30 222 108 273 219 41 92 46 133 48 379 3 277 -1 306 -47 352 -79 79 -191 56 -236 -47 -12 -27 -16 -85 -18 -258 -2 -211 -4 -226 -26 -270 -59 -119 -204 -108 -238 19 -6 20 -12 129 -15 240 -7 267 -8 279 -48 316 -58 55 -101 66 -163 39z m123 -67 c7 -7 8 -23 2 -47 -13 -54 -11 -443 2 -499 25 -108 74 -160 169 -182 86 -20 195 15 234 74 44 67 49 109 50 390 l1 270 64 0 64 0 -2 -285 c-2 -298 -6 -327 -53 -415 -21 -39 -97 -110 -129 -120 -13 -4 -30 -13 -38 -19 -9 -7 -60 -11 -135 -11 -105 0 -127 3 -167 23 -56 27 -128 96 -150 143 -47 97 -49 113 -49 394 0 149 0 276 0 283 0 15 121 17 137 1z"/> <path d="M4950 3235 c-14 -8 -32 -14 -41 -15 -30 0 -136 -112 -148 -155 -19 -69 -13 -125 20 -195 47 -100 110 -143 224 -154 61 -5 77 -3 120 17 57 27 105 78 105 111 0 29 -67 116 -89 116 -10 0 -26 -7 -37 -15 -10 -8 -22 -15 -26 -15 -11 0 -58 46 -58 58 0 13 65 25 100 17 23 -5 34 0 63 28 19 19 39 49 45 66 10 29 8 35 -25 71 -19 22 -41 40 -48 40 -8 0 -20 7 -28 15 -22 21 -144 28 -177 10z m173 -72 c51 -29 67 -45 67 -70 0 -19 -5 -23 -32 -23 -17 0 -40 8 -51 18 -28 25 -123 24 -159 -3 -59 -45 -60 -149 -2 -206 32 -31 41 -34 91 -33 45 0 58 4 72 22 9 13 29 24 46 25 25 2 31 -2 33 -21 4 -28 -18 -51 -76 -81 -51 -26 -111 -27 -161 -2 -44 23 -111 96 -111 122 0 10 -4 21 -10 24 -27 17 5 128 51 176 47 49 90 69 152 69 38 0 70 -6 90 -17z"/> <path d="M6100 3245 c-8 -2 -32 -7 -54 -10 -45 -7 -96 -57 -96 -94 0 -13 18 -48 40 -77 22 -29 40 -57 40 -62 0 -5 9 -21 20 -35 11 -14 17 -32 14 -41 -3 -9 -3 -41 1 -72 8 -64 44 -107 97 -118 62 -12 113 66 120 185 5 72 8 81 51 143 26 37 47 72 47 77 0 22 -41 67 -74 83 -33 15 -172 30 -206 21z m228 -104 l-3 -36 -60 0 -60 0 0 -165 0 -165 -35 0 -35 0 -1 165 -1 165 -49 -3 c-75 -4 -94 3 -94 37 0 16 5 31 11 33 6 2 83 4 170 4 l160 0 -3 -35z"/> <path d="M7208 3241 c-73 -6 -80 -8 -115 -44 -38 -37 -38 -37 -45 -145 -5 -67 -3 -136 4 -186 11 -75 14 -80 51 -107 42 -30 70 -31 112 -3 27 19 49 17 97 -6 61 -29 102 -26 140 10 30 29 32 35 34 113 1 45 7 95 13 110 7 17 8 51 4 84 -8 75 -49 121 -138 157 -36 14 -69 25 -73 24 -4 -1 -42 -4 -84 -7z m128 -69 c11 -1 39 -18 62 -38 39 -33 42 -39 42 -87 0 -44 -4 -56 -32 -84 -18 -18 -38 -33 -45 -33 -24 0 -14 -18 37 -69 62 -62 66 -91 12 -91 -35 0 -40 4 -75 59 -50 77 -65 90 -107 88 l-35 -2 0 -62 c0 -68 -10 -86 -46 -81 l-24 3 -3 190 c-1 104 -1 194 2 200 3 9 126 13 212 7z"/> <path d="M7198 3104 c-5 -4 -8 -36 -8 -71 l0 -63 65 0 c82 0 115 18 115 64 0 55 -19 70 -96 74 -38 2 -72 0 -76 -4z"/> <path d="M8777 3235 c-50 -10 -75 -21 -92 -40 -13 -14 -28 -25 -34 -25 -5 0 -23 -24 -40 -54 -28 -49 -31 -61 -31 -142 0 -81 3 -94 30 -141 17 -29 34 -53 39 -53 5 0 22 -11 38 -24 47 -39 99 -50 194 -39 135 16 196 70 206 183 5 52 3 64 -14 83 -35 38 -42 61 -36 120 5 51 3 58 -21 80 -26 24 -130 68 -157 66 -8 0 -45 -7 -82 -14z m149 -69 c11 -8 31 -16 44 -18 21 -2 25 -8 25 -38 0 -29 -4 -36 -23 -38 -13 -2 -32 4 -43 14 -12 10 -41 19 -74 22 -53 4 -56 3 -95 -36 -38 -37 -40 -43 -40 -99 0 -55 3 -62 36 -94 33 -32 40 -34 99 -34 69 0 97 18 92 60 -2 17 -11 21 -54 23 -45 3 -52 6 -57 28 -4 14 -4 29 -1 34 8 13 141 13 164 1 14 -8 17 -22 15 -76 -1 -36 -7 -72 -14 -80 -7 -9 -35 -26 -62 -40 -90 -45 -177 -27 -249 53 -32 35 -34 42 -37 117 -4 79 -3 82 30 125 46 61 100 89 168 90 32 0 64 -6 76 -14z"/> <path d="M5540 3207 c-47 -35 -100 -105 -100 -133 0 -9 -13 -40 -29 -68 -34 -58 -53 -124 -52 -176 1 -26 10 -43 36 -67 42 -40 66 -41 141 -8 63 28 102 26 164 -6 48 -26 94 -24 120 3 31 33 49 74 39 89 -4 7 -5 26 -2 41 4 20 -3 41 -25 75 -16 27 -38 71 -48 98 -26 74 -59 122 -102 149 -62 40 -90 41 -142 3z m102 -44 c10 -9 18 -20 18 -25 0 -19 138 -306 151 -314 5 -3 9 -16 9 -30 0 -21 -5 -24 -34 -24 -36 0 -57 22 -69 72 -7 26 -9 27 -99 30 -103 3 -112 -1 -132 -64 -10 -29 -15 -33 -46 -33 -33 0 -35 2 -32 30 2 17 9 37 17 45 7 8 29 51 50 95 20 44 50 107 66 141 16 33 29 65 29 71 0 25 47 29 72 6z"/> <path d="M5578 3020 c-20 -41 -34 -78 -32 -82 7 -11 134 -10 134 1 0 5 -11 31 -24 58 -13 26 -28 59 -33 72 -9 23 -12 19 -45 -49z"/> <path d="M6536 3194 l-46 -46 1 -141 c1 -202 5 -218 59 -261 42 -33 50 -36 116 -36 91 0 172 15 204 39 31 22 37 70 16 116 -18 38 -20 68 -6 94 6 12 5 30 -2 54 -9 30 -8 41 11 77 27 52 27 61 -5 95 -33 36 -76 47 -201 51 l-101 4 -46 -46z m329 -54 l0 -35 -117 3 c-90 2 -118 0 -119 -10 -3 -30 -1 -89 2 -92 2 -3 44 0 93 5 48 6 95 8 102 5 8 -3 14 -19 14 -36 l0 -30 -103 0 c-57 0 -106 -2 -108 -4 -2 -2 -2 -27 -1 -54 l4 -49 116 1 117 1 3 -29 c2 -16 0 -32 -5 -37 -5 -5 -75 -6 -156 -2 l-147 6 0 193 c0 125 4 194 10 196 6 2 75 3 153 3 l142 0 0 -35z"/> <path d="M8055 3212 c-41 -26 -51 -39 -69 -100 -11 -40 -13 -60 -5 -80 6 -15 8 -43 5 -62 -2 -19 -1 -68 4 -108 9 -84 31 -116 86 -127 28 -5 40 -1 65 19 39 33 59 33 116 -1 81 -47 140 -28 183 63 19 39 20 50 11 165 -5 68 -13 138 -16 156 -15 70 -94 99 -150 55 -36 -28 -44 -28 -112 8 -65 35 -78 36 -118 12z m75 -67 c12 -20 27 -41 34 -48 11 -11 75 -96 130 -171 10 -15 21 -24 24 -21 7 7 2 135 -8 197 -10 63 0 80 44 76 l31 -3 -2 -193 c-2 -107 -5 -198 -8 -203 -11 -17 -42 -9 -61 17 -56 77 -118 160 -124 164 -3 3 -16 22 -29 43 -38 62 -44 49 -40 -95 l4 -133 -35 0 -35 0 -3 190 c-1 104 0 195 2 202 11 27 54 14 76 -22z"/> <path d="M7701 3207 c-56 -28 -66 -58 -69 -201 -2 -78 1 -151 8 -175 24 -89 108 -120 166 -60 l29 30 3 152 c5 180 -2 214 -48 245 -37 25 -55 27 -89 9z m73 -232 l0 -200 -34 0 -35 0 -3 190 c-1 104 0 195 3 203 3 8 17 12 37 10 l32 -3 0 -200z"/> </g> </svg> 